<mxfile host="app.diagrams.net" modified="2023-10-25T17:53:09.462Z" agent="Mozilla/5.0 (Windows NT 10.0; Win64; x64) AppleWebKit/537.36 (KHTML, like Gecko) Chrome/118.0.0.0 Safari/537.36 Edg/118.0.2088.61" etag="le_HhkltltOGJitRSs6b" version="22.0.8" type="google">
  <diagram name="Page-1" id="CEWWZ-MOnB49EF63ByOt">
    <mxGraphModel dx="473" dy="561" grid="1" gridSize="10" guides="1" tooltips="1" connect="1" arrows="1" fold="1" page="1" pageScale="1" pageWidth="850" pageHeight="1100" math="0" shadow="0">
      <root>
        <mxCell id="0" />
        <mxCell id="1" parent="0" />
        <mxCell id="qrhkwvGi639YKyJ-E3AA-4" value="" style="edgeStyle=orthogonalEdgeStyle;rounded=0;orthogonalLoop=1;jettySize=auto;html=1;" edge="1" parent="1" source="qrhkwvGi639YKyJ-E3AA-2" target="qrhkwvGi639YKyJ-E3AA-3">
          <mxGeometry relative="1" as="geometry" />
        </mxCell>
        <mxCell id="qrhkwvGi639YKyJ-E3AA-2" value="start" style="ellipse;whiteSpace=wrap;html=1;" vertex="1" parent="1">
          <mxGeometry x="320" y="50" width="120" height="50" as="geometry" />
        </mxCell>
        <mxCell id="qrhkwvGi639YKyJ-E3AA-6" value="" style="edgeStyle=orthogonalEdgeStyle;rounded=0;orthogonalLoop=1;jettySize=auto;html=1;" edge="1" parent="1" source="qrhkwvGi639YKyJ-E3AA-3" target="qrhkwvGi639YKyJ-E3AA-5">
          <mxGeometry relative="1" as="geometry" />
        </mxCell>
        <mxCell id="qrhkwvGi639YKyJ-E3AA-3" value="read s1,s2,s3,&lt;br&gt;s4,s5" style="shape=parallelogram;perimeter=parallelogramPerimeter;whiteSpace=wrap;html=1;fixedSize=1;" vertex="1" parent="1">
          <mxGeometry x="320" y="140" width="120" height="60" as="geometry" />
        </mxCell>
        <mxCell id="qrhkwvGi639YKyJ-E3AA-8" value="" style="edgeStyle=orthogonalEdgeStyle;rounded=0;orthogonalLoop=1;jettySize=auto;html=1;" edge="1" parent="1" source="qrhkwvGi639YKyJ-E3AA-5" target="qrhkwvGi639YKyJ-E3AA-7">
          <mxGeometry relative="1" as="geometry" />
        </mxCell>
        <mxCell id="qrhkwvGi639YKyJ-E3AA-5" value="percentage of student =total marks /total no of sub" style="whiteSpace=wrap;html=1;" vertex="1" parent="1">
          <mxGeometry x="320" y="230" width="120" height="60" as="geometry" />
        </mxCell>
        <mxCell id="qrhkwvGi639YKyJ-E3AA-10" value="" style="edgeStyle=orthogonalEdgeStyle;rounded=0;orthogonalLoop=1;jettySize=auto;html=1;" edge="1" parent="1" source="qrhkwvGi639YKyJ-E3AA-7" target="qrhkwvGi639YKyJ-E3AA-9">
          <mxGeometry relative="1" as="geometry" />
        </mxCell>
        <mxCell id="qrhkwvGi639YKyJ-E3AA-12" value="" style="edgeStyle=orthogonalEdgeStyle;rounded=0;orthogonalLoop=1;jettySize=auto;html=1;" edge="1" parent="1" source="qrhkwvGi639YKyJ-E3AA-7" target="qrhkwvGi639YKyJ-E3AA-11">
          <mxGeometry relative="1" as="geometry" />
        </mxCell>
        <mxCell id="qrhkwvGi639YKyJ-E3AA-7" value="if(perc&amp;lt;70" style="rhombus;whiteSpace=wrap;html=1;" vertex="1" parent="1">
          <mxGeometry x="320" y="320" width="120" height="80" as="geometry" />
        </mxCell>
        <mxCell id="qrhkwvGi639YKyJ-E3AA-9" value="print failed" style="shape=parallelogram;perimeter=parallelogramPerimeter;whiteSpace=wrap;html=1;fixedSize=1;" vertex="1" parent="1">
          <mxGeometry x="520" y="330" width="120" height="60" as="geometry" />
        </mxCell>
        <mxCell id="qrhkwvGi639YKyJ-E3AA-14" value="" style="edgeStyle=orthogonalEdgeStyle;rounded=0;orthogonalLoop=1;jettySize=auto;html=1;" edge="1" parent="1" source="qrhkwvGi639YKyJ-E3AA-11" target="qrhkwvGi639YKyJ-E3AA-13">
          <mxGeometry relative="1" as="geometry" />
        </mxCell>
        <mxCell id="qrhkwvGi639YKyJ-E3AA-11" value="print passed" style="shape=parallelogram;perimeter=parallelogramPerimeter;whiteSpace=wrap;html=1;fixedSize=1;" vertex="1" parent="1">
          <mxGeometry x="320" y="420" width="120" height="60" as="geometry" />
        </mxCell>
        <mxCell id="qrhkwvGi639YKyJ-E3AA-13" value="stop" style="ellipse;whiteSpace=wrap;html=1;" vertex="1" parent="1">
          <mxGeometry x="340" y="550" width="80" height="50" as="geometry" />
        </mxCell>
        <mxCell id="qrhkwvGi639YKyJ-E3AA-15" value="f" style="text;html=1;align=center;verticalAlign=middle;resizable=0;points=[];autosize=1;strokeColor=none;fillColor=none;" vertex="1" parent="1">
          <mxGeometry x="465" y="328" width="30" height="30" as="geometry" />
        </mxCell>
        <mxCell id="qrhkwvGi639YKyJ-E3AA-16" value="t" style="text;html=1;align=center;verticalAlign=middle;resizable=0;points=[];autosize=1;strokeColor=none;fillColor=none;" vertex="1" parent="1">
          <mxGeometry x="405" y="398" width="30" height="30" as="geometry" />
        </mxCell>
        <mxCell id="qrhkwvGi639YKyJ-E3AA-17" value="" style="endArrow=none;html=1;rounded=0;entryX=0.5;entryY=1;entryDx=0;entryDy=0;entryPerimeter=0;" edge="1" parent="1" target="qrhkwvGi639YKyJ-E3AA-9">
          <mxGeometry width="50" height="50" relative="1" as="geometry">
            <mxPoint x="580" y="580" as="sourcePoint" />
            <mxPoint x="580" y="398" as="targetPoint" />
          </mxGeometry>
        </mxCell>
        <mxCell id="qrhkwvGi639YKyJ-E3AA-18" value="" style="endArrow=classic;html=1;rounded=0;entryX=1;entryY=0.5;entryDx=0;entryDy=0;" edge="1" parent="1" target="qrhkwvGi639YKyJ-E3AA-13">
          <mxGeometry width="50" height="50" relative="1" as="geometry">
            <mxPoint x="570" y="580" as="sourcePoint" />
            <mxPoint x="505" y="550" as="targetPoint" />
          </mxGeometry>
        </mxCell>
      </root>
    </mxGraphModel>
  </diagram>
</mxfile>
